
<svg xmlns="http://www.w3.org/2000/svg" xmlns:xlink="http://www.w3.org/1999/xlink" xml:space="preserve" width="0.72666in" height="0.72666in" style="shape-rendering:geometricPrecision; text-rendering:geometricPrecision; image-rendering:optimizeQuality; fill-rule:evenodd; clip-rule:evenodd" viewBox="0 0 6.82666 6.82666">
 <defs>
  <style type="text/css">
   <![CDATA[
    .fil2 {fill:none}
    .fil6 {fill:#000084}
    .fil5 {fill:#128807}
    .fil1 {fill:#4FB5E5}
    .fil0 {fill:#80D3FA}
    .fil4 {fill:#EEEEEE}
    .fil3 {fill:#FF9933}
   ]]>
  </style>
   <clipPath id="id0">
    <path d="M3.41333 0c1.88513,0 3.41333,1.5282 3.41333,3.41333 0,1.88513 -1.5282,3.41333 -3.41333,3.41333 -1.88513,0 -3.41333,-1.5282 -3.41333,-3.41333 0,-1.88513 1.5282,-3.41333 3.41333,-3.41333z"/>
   </clipPath>
 </defs>
 <g id="Layer_x0020_1">
  <metadata id="CorelCorpID_0Corel-Layer"/>
  <path class="fil0" d="M3.41333 0c1.88513,0 3.41333,1.5282 3.41333,3.41333 0,1.88513 -1.5282,3.41333 -3.41333,3.41333 -1.88513,0 -3.41333,-1.5282 -3.41333,-3.41333 0,-1.88513 1.5282,-3.41333 3.41333,-3.41333z"/>
  <g style="clip-path:url(#id0)">
   <g id="_684156104">
    <g>
     <polygon id="_6825991681" class="fil1" points="5.28,2.29193 9.06627,6.0782 9.06627,6.8258 5.28,3.03953 "/>
     <polygon id="_682599192" class="fil1" points="5.28,3.03953 9.06627,6.8258 9.06627,7.57341 5.28,3.78713 "/>
     <polygon id="_682600656" class="fil1" points="5.28,3.78713 9.06627,7.57341 9.06627,8.32101 5.28,4.53474 "/>
     <polygon id="_682600680" class="fil1" points="5.28,4.53474 9.06627,8.32101 5.33293,8.32101 1.54667,4.53474 "/>
    </g>
    <polygon id="_684156128" class="fil1" points="1.54667,2.29193 5.28,2.29193 5.28,3.03953 5.28,3.78713 5.28,4.53474 1.54667,4.53474 1.54667,3.78713 1.54667,3.03953 "/>
   </g>
  </g>
  <path class="fil2" d="M3.41333 0c1.88513,0 3.41333,1.5282 3.41333,3.41333 0,1.88513 -1.5282,3.41333 -3.41333,3.41333 -1.88513,0 -3.41333,-1.5282 -3.41333,-3.41333 0,-1.88513 1.5282,-3.41333 3.41333,-3.41333z"/>
  <rect class="fil3" x="1.54666" y="2.29193" width="3.73333" height="0.747604"/>
  <rect class="fil4" x="1.54666" y="3.03953" width="3.73333" height="0.747604"/>
  <rect class="fil5" x="1.54666" y="3.78713" width="3.73333" height="0.747604"/>
  <path class="fil6" d="M3.41333 3.14491c-0.148071,0 -0.268311,0.119878 -0.268311,0.267949 0,0.148071 0.12024,0.268311 0.268311,0.268311 0.148071,0 0.268311,-0.12024 0.268311,-0.268311 -0.000181102,-0.148071 -0.12024,-0.267949 -0.268311,-0.267949zm0.0426417 0.0295945c0.00678346,0.0014252 0.0132047,0.00251181 0.0198071,0.00465748l-0.0414016 0.128425 -0.0115197 0.0663543c-0.00266535,-0.000645669 -0.00546063,-0.000980315 -0.00831102,-0.0010315l0.00592913 -0.0671142 -0.00678346 -0.134866c0.00714961,0 0.0139016,0.000366142 0.020685,0.00109055 0,0.000358268 -0.000362205,0.000358268 -0.000362205,0.000724409 0,0.00641732 0.005,0.011752 0.0110827,0.011752 0.00569685,0 0.0103307,-0.00463386 0.010874,-0.00999213zm-0.0428228 -0.0035748l-0.00675591 0.134866 0.0063937 0.0671142c-0.00300394,5.11811e-005 -0.00592913,0.000464567 -0.00875197,0.0011378l-0.0113898 -0.0664606 -0.0414016 -0.128425c0.00644488,-0.00214567 0.0128661,-0.00323228 0.019626,-0.00465748 0.000724409,0.00535827 0.00535827,0.00962992 0.010874,0.00962992 0.00626378,0 0.0112598,-0.00497244 0.0112598,-0.0113898l0 -0.00108661c0.00657874,-0.000728346 0.0133898,-0.000728346 0.0201457,-0.000728346zm0.0633268 0.00823228c0.00644882,0.00212598 0.0128701,0.00391339 0.0192913,0.0064252 -0.000362205,0.00105906 -0.000905512,0.00248425 -0.000905512,0.00390945 0,0.00605512 0.005,0.0110551 0.0112362,0.0110551 0.00427165,0 0.00857087,-0.00285039 0.0101772,-0.00678346 0.00605512,0.00287402 0.0119331,0.00608268 0.0180197,0.00965748l-0.0733228 0.112728 -0.0283031 0.0615709c-0.00253543,-0.00139764 -0.00525591,-0.00253937 -0.00810236,-0.00333858l0.023378 -0.0635906 0.0285315 -0.131634zm-0.0422008 0.199496l0.0389921 -0.0550236 0.0615433 -0.119874c0.00553937,0.0032126 0.0112638,0.00678346 0.0169606,0.0103583 -0.0016063,0.00212205 -0.00251181,0.00427165 -0.00251181,0.00711811 0,0.00608661 0.00499606,0.0110827 0.0112638,0.0110827 0.00354724,0 0.00675591,-0.0014252 0.00872441,-0.00466142 0.00535827,0.00466142 0.0103543,0.00929528 0.0149882,0.0139291l-0.0998858 0.0902559 -0.043189 0.0520945c-0.00209449,-0.00199213 -0.00440157,-0.00377953 -0.00688583,-0.00527953zm0.0081811 0.00655118l0.0518622 -0.0430079 0.0904646 -0.100252c0.00463386,0.00499606 0.00926772,0.00962992 0.0135394,0.0149646 -0.00266535,0.00214961 -0.00390945,0.0053622 -0.00390945,0.00857087 0,0.00608661 0.00497244,0.0110827 0.010874,0.0110827 0.00266929,0 0.00463386,-0.000724409 0.00660236,-0.00214961 0.00411811,0.00569685 0.00766142,0.0114213 0.010874,0.0171142l-0.119874 0.0613622 -0.0550984 0.039252c-0.00152756,-0.00248425 -0.00331496,-0.00484252 -0.00533465,-0.00693701zm0.00626772 0.00854331l0.0611299 -0.0280157 0.113272 -0.0738425c0.00375591,0.00642126 0.00678346,0.0132047 0.00981496,0.0189016 -0.00375591,0.00178346 -0.00678346,0.00608268 -0.00678346,0.0107205 0,0.00605512 0.00499606,0.0110551 0.0108976,0.0110551 0.00176378,0 0.00302756,-0.000362205 0.00427165,-0.00106299 0.00214961,0.00642126 0.00409055,0.0124803 0.00570079,0.0189016l-0.131815 0.0278307 -0.0631772 0.0233819c-0.000799213,-0.00277165 -0.00194094,-0.00538583 -0.00331102,-0.00787008zm0.00377953 0.00962992l0.066437 -0.0112362 0.128445 -0.0410118c0.0016063,0.00569685 0.0032126,0.0128425 0.00445276,0.0192638 -0.00551181,0.00069685 -0.00962992,0.00499606 -0.00962992,0.0110551 0,0.00605512 0.00517717,0.0110551 0.0112362,0.0110551l0.00108661 0c0.000700787,0.00642126 0.000700787,0.0135669 0.000700787,0.0199882l-0.134504 -0.00642126 -0.0671102 0.00590157c-7.87402e-005,-0.00294882 -0.000440945,-0.00582283 -0.00111417,-0.00859449zm0.00111417 0.010437l0.0671102 0.00651969 0.134504 -0.00714567c0,0.00714567 0,0.0139291 -0.000700787,0.0203504l-0.00108661 0c-0.00605906,0 -0.0112362,0.00533465 -0.0112362,0.0110551 0,0.00569685 0.00411811,0.00999606 0.00944882,0.0110551 -0.00124016,0.00678346 -0.00266535,0.0132087 -0.00427165,0.0196299l-0.0458543 -0.0146299 -0.0825906 -0.0267717 -0.0664882 -0.0112362c0.00069685,-0.00285039 0.00108661,-0.00579921 0.00116535,-0.00882677zm-0.00163386 0.0105591l0.0632283 0.0234331 0.131815 0.0281929c-0.00161024,0.0064252 -0.00355118,0.0132087 -0.00606299,0.0189016 -0.000362205,0 -0.00106299,-0.000362205 -0.00142126,-0.000362205l-0.00248819 0c-0.00626378,0 -0.0112598,0.00466142 -0.0112598,0.0110827 0,0.00175984 0.000362205,0.00284646 0.00108661,0.00427165 0.000515748,0.0017874 0.0016063,0.00320866 0.00302756,0.00427165 0.000362205,0 0.000543307,0.000366142 0.00088189,0.000366142 0.000362205,0.000358268 0.000724409,0.000720472 0.00108661,0.000720472 0.000181102,0 0.000519685,0.000338583 0.000700787,0.000700787 -0.00285039,0.00605906 -0.00605906,0.0121417 -0.00945276,0.0178386l-0.113091 -0.0731417 -0.000181102 0 -0.0613386 -0.0280945c0.0014252,-0.00256299 0.00261811,-0.00530709 0.0034685,-0.0081811zm-0.00424409 0.00950394l0.0291024 0.0203504 0.0260472 0.018563 0.119874 0.0613622c-0.00357087,0.00605906 -0.00711811,0.0121181 -0.0110551,0.0174764 -0.0017874,-0.00105906 -0.00409055,-0.0017874 -0.00642126,-0.0017874 -0.00624016,0 -0.0110551,0.0046378 -0.0110551,0.0107205 0,0.00354724 0.0014252,0.00678346 0.00409055,0.00854724 -0.00445276,0.00499213 -0.00890551,0.00999213 -0.0135394,0.0146496l-0.0904646 -0.0999134 -0.051811 -0.0430827c0.00199606,-0.00209449 0.00372835,-0.00440157 0.00523228,-0.00688583zm-0.0065 0.00812992l0.0431102 0.0521969 0.0998858 0.0902559c-0.00463386,0.005 -0.00926772,0.00890551 -0.0144449,0.0132047 -0.00214961,-0.0017874 -0.00445276,-0.00251181 -0.00696457,-0.00251181 -0.00605906,0 -0.0110551,0.0053622 -0.0110551,0.0110827 0,0.00212205 0.000362205,0.00354331 0.000877953,0.00497244 -0.00587402,0.00357087 -0.0119331,0.00750787 -0.0178386,0.0114173l-0.0615433 -0.119878 -0.0390197 -0.0553543c0.00251181,-0.00152756 0.00487008,-0.00333858 0.00699213,-0.00538583zm-0.00857087 0.0063189l0.028122 0.0612047 0.0733228 0.113457c-0.00590551,0.00320866 -0.0117835,0.00642126 -0.0178386,0.00926772 -0.0016063,-0.00427165 -0.00553937,-0.00675591 -0.00999606,-0.00675591 -0.00624016,0 -0.0112362,0.00533071 -0.0112362,0.0110551 0,0.00142126 0.000362205,0.00284646 0.000724409,0.00427165 -0.00642126,0.00214961 -0.012685,0.00427165 -0.0192913,0.00572047l-0.0285315 -0.132016 -0.0234567 -0.0628425c0.00287402,-0.000826772 0.00561811,-0.00194094 0.0081811,-0.0033622zm-0.00981102 0.00377953l0.0115197 0.0663583 0.0414016 0.128445c-0.00660236,0.00175984 -0.0132047,0.00354724 -0.0198071,0.00427165 -0.000877953,-0.00499606 -0.00553937,-0.00926772 -0.010874,-0.00926772 -0.00641732,0 -0.0110827,0.00499606 -0.0110827,0.0106929l0 0.0014252c-0.00675591,0.000720472 -0.0135394,0.00106299 -0.0203228,0.00106299l0.00678346 -0.134508 -0.00626378 -0.0674488c0.00297638,-5.11811e-005 0.00585039,-0.000385827 0.00864567,-0.0010315zm-0.0103819 0.0010315l-0.00608268 0.0674488 0.00675591 0.134508c-0.00711811,0 -0.0137205,-0.00034252 -0.020685,-0.00106299l0 -0.0014252c0,-0.00569685 -0.005,-0.0106929 -0.0112402,-0.0106929 -0.00535827,0 -0.00999213,0.00427165 -0.010874,0.00926772 -0.00659843,-0.00108661 -0.0130236,-0.00251181 -0.0192638,-0.00427165l0.041378 -0.128445 0.0112874 -0.0665157c0.00279528,0.000724409 0.00572047,0.00111417 0.00872441,0.00118898zm-0.0184843 -0.00509843c0.00253543,0.0014252 0.00522835,0.00259055 0.0080748,0.00344488l-0.0235079 0.0630472 -0.0281969 0.132016c-0.00642126,-0.00144882 -0.0128425,-0.00357087 -0.0194449,-0.00572047 0.000519685,-0.0014252 0.000905512,-0.00285039 0.000905512,-0.00427165 0,-0.00572441 -0.00499606,-0.0110551 -0.0108976,-0.0110551 -0.00463386,0 -0.00857087,0.00284646 -0.0105118,0.00675591 -0.00590551,-0.00284646 -0.0119606,-0.00605906 -0.0178386,-0.00926772l0.0732953 -0.113457 0.028122 -0.0614921zm-0.00818504 -0.00605906c0.00201969,0.00194488 0.00424803,0.00367717 0.00662992,0.00515354l-0.0390433 0.055252 -0.0613622 0.12024c-0.00587795,-0.00390945 -0.0117835,-0.00748425 -0.0172953,-0.0114173 0.00124016,-0.00142913 0.00212205,-0.00355118 0.00212205,-0.00606299 0,-0.00642126 -0.00499606,-0.0114134 -0.010874,-0.0114134 -0.00375591,0 -0.00678346,0.00178346 -0.00857087,0.00429528 -0.00535827,-0.00466142 -0.0103543,-0.00856693 -0.0149882,-0.0135669l0.100276 -0.0902559 0.0431063 -0.0522244zm-0.00690945 -0.131189l0.0234291 0.0636929c-0.00287402,0.000850394 -0.00566929,0.00201969 -0.00823228,0.00344094l-0.0282244 -0.0617756 -0.0732953 -0.112756c0.00587795,-0.00354724 0.0117559,-0.00675591 0.0176575,-0.00962992 0.0017874,0.00429528 0.00569291,0.00714567 0.0103307,0.00714567 0.00626378,0 0.0110551,-0.00499606 0.0110551,-0.0106969 0,-0.00178346 -0.000334646,-0.00357087 -0.000700787,-0.00462992 0.00624016,-0.00251181 0.0130236,-0.00429921 0.0194449,-0.0064252l0.0285354 0.131634zm-0.00385827 0.113583c0.000854331,0.00279528 0.00196457,0.00546457 0.0033622,0.00797638l-0.061748 0.0282992 -0.113118 0.0731417c-0.0033937,-0.00569685 -0.00605906,-0.0114173 -0.00909055,-0.0178386 0.00427165,-0.00142126 0.00714961,-0.00535827 0.00714961,-0.00999606 0,-0.00641732 -0.00484252,-0.0114173 -0.0112638,-0.0114173 -0.0016063,0 -0.00318504,0.000362205 -0.00463386,0.00109055 -0.00212598,-0.00608661 -0.00427165,-0.0128465 -0.00624409,-0.0196299l0.13202 -0.0281929 0.0635669 -0.0234331zm-0.0509016 0.0480551l0.0550945 -0.0386299c0.0015,0.00248425 0.0032874,0.0048189 0.00530709,0.00691339l-0.0520157 0.0431339 -0.0904646 0.0999134c-0.00499606,-0.00465748 -0.00944882,-0.00999213 -0.0139016,-0.0146496 0.00251181,-0.00212598 0.00429528,-0.00533465 0.00429528,-0.00890945 0,-0.00608268 -0.00499213,-0.0106929 -0.0110787,-0.0106929 -0.00248819,0 -0.00481496,0.000700787 -0.00660236,0.00175984 -0.00390945,-0.00533071 -0.00748031,-0.0110551 -0.010874,-0.0171142l0.12024 -0.0617244zm0.0292559 -0.148799l0.0391732 0.0551772c-0.00246063,0.0015 -0.00468898,0.00325984 -0.00675984,0.00523228l-0.0431063 -0.0522008 -0.100276 -0.0902559c0.00499606,-0.00463386 0.00981102,-0.00926772 0.0149882,-0.0135669 0.0017874,0.00251181 0.00499606,0.00429921 0.00857087,0.00429921 0.00624016,0 0.0112362,-0.00499606 0.0112362,-0.0114173 0,-0.00251181 -0.00106299,-0.00463386 -0.00233071,-0.00678346 0.00572441,-0.00320866 0.0112638,-0.00714567 0.0171417,-0.0103583l0.0613622 0.119874zm-0.0210512 0.0185669l0.0521732 0.0431102c-0.00202362,0.00209449 -0.00378346,0.0044252 -0.00531102,0.00691339l-0.0550669 -0.0393307 -0.12024 -0.0613622c0.0033937,-0.00569291 0.00714567,-0.0114173 0.0110551,-0.0174764 0.0016063,0.0017874 0.00429528,0.00251181 0.00660236,0.00251181 0.00590551,0 0.0110551,-0.00499606 0.0110551,-0.0110827 0,-0.00320866 -0.00175984,-0.00642126 -0.00409055,-0.00890551 0.00409055,-0.005 0.00854331,-0.00963386 0.0133858,-0.0146299l0.090437 0.100252zm-0.015689 0.0235354l0.0615945 0.0280906c-0.00134646,0.00246063 -0.00246063,0.0050748 -0.00325984,0.00782283l-0.0635157 -0.0234094 -0.13202 -0.0281929c0.00197244,-0.00678346 0.00411811,-0.0132047 0.00624409,-0.0192638 0.00108661,0.000362205 0.00287402,0.000724409 0.00411417,0.000724409 0.00624016,0 0.0110551,-0.005 0.0110551,-0.0110827 0,-0.00463386 -0.00284646,-0.00854331 -0.00660236,-0.00996457 0.00285039,-0.0064252 0.00587795,-0.0125079 0.00927165,-0.0185669l0.113118 0.0738425zm-0.00893307 0.0264094l0.0668268 0.0112362c-0.000673228,0.00279528 -0.00106299,0.00569685 -0.00114173,0.00864567l-0.0674724 -0.00595276 -0.134685 0.00642126c0,-0.00642126 0.000543307,-0.0135669 0.000905512,-0.0199882l0.00194094 0c0.00608661,0 0.0110827,-0.00463386 0.0110827,-0.0110551 0,-0.00605906 -0.00448031,-0.0103583 -0.0103543,-0.0110551 0.00142126,-0.00642126 0.00266535,-0.0135669 0.00445276,-0.0192638l0.128445 0.0410118zm-0.0017874 0.0281929l0.0674724 -0.0065748c7.87402e-005,0.00305512 0.000468504,0.0060315 0.00116929,0.00888189l-0.0668543 0.0112362 -0.128445 0.0414016c-0.0017874,-0.00642126 -0.0030315,-0.0128465 -0.00445276,-0.0199882 0.00553937,-0.000700787 0.00962992,-0.005 0.00962992,-0.0106969 0,-0.00605512 -0.005,-0.0110551 -0.0110551,-0.0110551l-0.00124409 0c-0.000362205,-0.00642126 -0.000905512,-0.0132047 -0.000905512,-0.0203504l0.134685 0.00714567z"/>
 </g>
</svg>